Coordinates
version=1
nRows=19
nColumns=33
inDegrees=yes

Units are S.I. units (second, meters, Newtons, ...)
Angles are in degrees.

endheader
time	ground_thorax_rot_x	ground_thorax_rot_y	ground_thorax_rot_z	ground_thorax_tx	ground_thorax_ty	ground_thorax_tz	clav_prot_r	clav_elev_r	scapula_abduction_r	scapula_elevation_r	scapula_upward_rot_r	scapula_winging_r	shoulder_elv_r	plane_of_elev_r	axial_rot_r	elbow_flexion_r	pro_sup_r	wrist_flex_r	wrist_dev_r	clav_prot_l	clav_elev_l	scapula_abduction_l	scapula_elevation_l	scapula_upward_rot_l	scapula_winging_l	shoulder_elv_l	plane_of_elev_l	axial_rot_l	elbow_flexion_l	pro_sup_l	wrist_flex_l	wrist_dev_l
      6.08000000	      0.43039859	     -0.03708643	     13.01042792	     -0.11689037	      1.02661620	      0.01732865	      7.48955853	     -7.11939206	     13.64599263	     -0.86349139	      1.38107556	     -3.37312315	    -52.37733488	    -72.90680425	     89.52292033	    -65.54460577	   -138.68124463	     51.68405328	    -24.99999983	      7.46127672	     -0.91828167	     -7.80555605	    -21.29026682	    -35.62776729	     -3.30739397	     58.28640966	    -34.83492632	      1.10216960	     66.67348189	     25.05047446	     -8.62905502	    -24.99999983
      6.09000000	      0.60601900	     -0.07369091	     13.15570519	     -0.11681662	      1.02677757	      0.01748007	      7.63315598	     -7.42065237	     13.50329351	     -0.77317022	      0.51868331	     -3.16151519	    -51.50108426	    -73.34983414	     90.30189833	    -66.73813672	   -141.98595714	     51.17869870	    -24.99999983	      7.30260203	     -1.38539329	     -7.67173004	    -21.08462527	    -36.15894070	     -3.39783552	     59.14394607	    -34.58341333	      1.27855285	     67.21424386	     22.93321845	     -6.36093315	    -24.99999983
      6.10000000	      0.48403279	      0.00936106	     13.03352264	     -0.11645799	      1.02678049	      0.01775577	      7.61213911	     -7.40642443	     13.58179752	     -0.86265706	      0.76047931	     -3.21247363	    -51.41916351	    -73.17448976	     90.43184866	    -67.39647613	   -142.06574211	     51.27935279	    -24.99999983	      7.33461814	     -1.35760679	     -7.66723936	    -20.96532673	    -35.85440365	     -3.34960342	     59.43228726	    -34.22502947	      1.43568556	     67.72311657	     22.81793066	     -6.29155967	    -24.99999983
      6.11000000	      0.41125925	      0.10657198	     12.94302493	     -0.11611788	      1.02667391	      0.01810253	      7.61007174	     -7.37619212	     13.67607248	     -0.92195890	      0.96738000	     -3.27254933	    -51.30677630	    -73.03001256	     90.51941221	    -68.14517480	   -142.21567449	     51.34371859	    -24.99999983	      7.37644064	     -1.36813289	     -7.68937555	    -20.80619409	    -35.54865228	     -3.28871907	     59.72645708	    -33.85702465	      1.56514515	     68.13834748	     22.68382534	     -6.15221217	    -24.99999983
      6.12000000	      0.46613198	      0.06907444	     12.89974904	     -0.11584376	      1.02673572	      0.01824812	      7.66062257	     -7.41521909	     13.65191537	     -0.85734437	      0.72822128	     -3.23480058	    -50.21936729	    -73.22487372	     91.84279017	    -69.29570345	   -144.90082674	     49.82229036	    -24.99999983	      7.23221757	     -1.65743138	     -7.49916699	    -20.62604851	    -35.76321672	     -3.36762319	     60.50227040	    -33.39336256	      1.96649281	     68.66547713	     20.72335162	     -2.05141570	    -24.99999983
      6.13000000	      0.37919374	      0.14970989	     12.86458524	     -0.11553747	      1.02665332	      0.01853190	      7.68981492	     -7.41932727	     13.80880900	     -0.95200541	      0.94583194	     -3.30742399	    -50.09686409	    -73.12627389	     91.91406105	    -70.11794252	   -144.93626994	     49.93417918	    -24.99999983	      7.30951949	     -1.68435645	     -7.58206549	    -20.43799721	    -35.43352213	     -3.27876234	     60.79348419	    -33.02105502	      2.02466415	     68.96047736	     20.67365162	     -1.97986717	    -24.99999983
      6.14000000	      0.47116406	      0.08246465	     12.78323136	     -0.11541377	      1.02688227	      0.01865523	      7.91281171	     -7.60198739	     14.07002481	     -0.99090628	      0.65252339	     -3.32639880	    -48.75764705	    -73.19525190	     92.96859816	    -71.38766226	   -146.23100385	     48.28728725	    -24.99999983	      7.26266275	     -1.97125887	     -7.51730363	    -20.12538891	    -35.37478352	     -3.26384257	     61.21566326	    -32.53172601	      2.45457746	     69.27280742	     19.76505196	      1.20107180	    -24.99999983
      6.15000000	      0.34006100	      0.14610244	     12.80886677	     -0.11502549	      1.02673306	      0.01891150	      7.93318090	     -7.60493459	     14.23990964	     -1.11319356	      0.92997118	     -3.40753707	    -48.65005105	    -73.07285741	     93.06502907	    -72.25141318	   -146.27563358	     48.36592752	    -24.99999983	      7.34941575	     -2.00087334	     -7.61947936	    -19.93109536	    -35.03641429	     -3.16483118	     61.51489611	    -32.16980157	      2.49485659	     69.49360776	     19.73024765	      1.26600594	    -24.99999983
      6.16000000	      0.26858541	      0.22529372	     12.73557241	     -0.11471384	      1.02666661	      0.01913657	      7.97798858	     -7.66049333	     14.48758774	     -1.30607685	      1.27074295	     -3.50392303	    -48.44453424	    -72.93457340	     93.13368358	    -73.17154942	   -146.39621770	     48.33292854	    -24.99999983	      7.46151307	     -2.07755338	     -7.77265861	    -19.68173042	    -34.68574641	     -3.04093922	     61.79933980	    -31.68788507	      2.46817979	     69.65195525	     19.67754019	      1.43201883	    -24.99999983
      6.17000000	      0.35152829	      0.14999905	     12.63269967	     -0.11464989	      1.02663932	      0.01911937	      8.26884102	     -7.66440025	     14.97382302	     -1.29305290	      1.23377036	     -3.68529730	    -47.01809707	    -72.86501574	     94.56522313	    -74.68073773	   -148.35296367	     44.20855955	    -24.99999983	      7.49637424	     -2.36261384	     -7.84972552	    -19.35375638	    -34.59162968	     -2.97056815	     62.09704608	    -31.02213277	      3.12424834	     69.79453001	     18.66986273	      5.57469597	    -24.99999983
      6.18000000	      0.29979771	      0.27793024	     12.57790551	     -0.11441689	      1.02660465	      0.01921407	      8.35470094	     -7.79259111	     15.28853453	     -1.54100500	      1.55179232	     -3.78129087	    -46.66864946	    -72.76484645	     94.63790407	    -75.54347607	   -148.37197429	     44.15496011	    -24.99999983	      7.63524480	     -2.50151369	     -8.05905540	    -19.03472878	    -34.22465748	     -2.81491202	     62.38597654	    -30.42117511	      2.98075310	     69.75328716	     18.68677199	      5.79708092	    -24.84439327
      6.19000000	      0.18947315	      0.21400801	     12.57992516	     -0.11444650	      1.02643868	      0.01924791	      8.62891108	     -7.93594641	     15.71036143	     -1.61661209	      1.42485910	     -3.88574171	    -44.81603331	    -72.56738638	     96.24658759	    -76.95226245	   -149.02611813	     40.41141685	    -24.77597172	      7.76697024	     -2.66113416	     -8.30491458	    -18.85200091	    -34.18023840	     -2.70167368	     62.83394249	    -29.78302682	      3.43771352	     70.15564223	     18.35224722	      9.11136471	    -21.97966148
      6.20000000	      0.09759437	      0.31675799	     12.57153680	     -0.11451500	      1.02676871	      0.01926418	      8.74966974	     -8.13862060	     16.01136120	     -1.86395764	      1.58173077	     -3.94224966	    -43.21990237	    -72.41850960	     97.43597282	    -77.77492481	   -149.23868127	     38.55629919	    -23.84166092	      7.99107427	     -2.96052366	     -8.71707897	    -18.47755159	    -34.03130787	     -2.49241218	     63.26893166	    -29.06701611	      3.48113518	     69.90248830	     18.32377759	     10.46469692	    -20.77865356
      6.21000000	      0.01233641	      0.40621181	     12.58642813	     -0.11441037	      1.02628550	      0.01925630	      8.92296616	     -8.21413561	     16.31944362	     -1.93560684	      1.59139070	     -4.03448278	    -41.56436264	    -72.19505485	     98.73901938	    -79.07175208	   -150.23062274	     35.98587844	    -22.72969966	      8.24373980	     -3.07553430	     -9.15575613	    -18.26462817	    -33.84109241	     -2.28151626	     63.49121574	    -28.30134426	      3.71764063	     69.90060096	     18.04738981	     12.07506090	    -19.27751408
      6.22000000	     -0.16956852	      0.50880025	     12.55551921	     -0.11447136	      1.02636708	      0.01918240	      9.07717337	     -8.48433491	     16.70751724	     -2.26637329	      1.80426881	     -4.10121728	    -40.04505905	    -71.92592828	     99.85862639	    -79.89712681	   -150.95575750	     33.82030747	    -21.38043798	      8.55234670	     -3.31686677	     -9.69786881	    -17.90010506	    -33.59687510	     -2.01005726	     63.78228659	    -27.60530622	      3.88441601	     69.59827894	     17.82585159	     13.33431316	    -18.13054753
      6.23000000	     -0.26373661	      0.73449099	     12.48425872	     -0.11430343	      1.02659142	      0.01923480	      9.21001800	     -8.74179847	     17.16014928	     -2.67253189	      2.23121822	     -4.19580569	    -39.33055591	    -71.50213625	    100.00015522	    -80.45214690	   -151.26101139	     33.14185179	    -20.99650526	      8.76872288	     -3.63576092	    -10.05305792	    -17.37470664	    -33.16547634	     -1.78693246	     64.04347777	    -26.80664626	      3.76845628	     68.82041632	     17.83689167	     13.71861147	    -17.69801545
      6.24000000	     -0.39574365	      0.77724560	     12.65381926	     -0.11461812	      1.02608317	      0.01896084	      9.51463262	     -8.77639138	     17.80543579	     -2.79917090	      2.46925693	     -4.45277247	    -37.67457986	    -71.25831965	    101.43970671	    -81.50792928	   -152.71823919	     28.74997031	    -18.10195127	      9.21877178	     -3.75861510	    -10.85097329	    -17.16152322	    -33.00359600	     -1.42730942	     64.01882288	    -26.02199850	      4.11920410	     68.49138395	     17.34179754	     15.85646670	    -15.94241206
      6.25000000	     -0.66205151	      0.91842398	     12.48813312	     -0.11467146	      1.02597390	      0.01873074	      9.75415227	     -9.19518731	     18.36624226	     -3.27962366	      2.73095902	     -4.52278927	    -35.95142628	    -70.76060672	    102.49511477	    -82.18158598	   -153.40892703	     26.33297110	    -16.42383802	      9.61688533	     -4.02313406	    -11.54795555	    -16.75821942	    -32.72833614	     -1.08621189	     64.31332389	    -25.22186025	      4.37831409	     68.01365591	     17.13263395	     17.04088019	    -15.01729266
      6.26000000	     -0.82920064	      1.17873150	     12.45866496	     -0.11451729	      1.02638879	      0.01861503	      9.90022409	     -9.52528271	     18.91309704	     -3.79969704	      3.29045445	     -4.62580330	    -35.11413325	    -70.18225678	    102.70716238	    -82.24508557	   -153.68122273	     25.43697560	    -15.83231592	      9.87360501	     -4.41890984	    -11.97864411	    -16.14843469	    -32.27458772	     -0.83140948	     64.55497971	    -24.38044722	      4.26763876	     66.83567676	     17.19757755	     17.42724185	    -14.57468976
